<?xml version="1.0" encoding="utf-8"?>
<!-- Generator: Adobe Illustrator 17.1.0, SVG Export Plug-In . SVG Version: 6.00 Build 0)  -->
<!DOCTYPE svg PUBLIC "-//W3C//DTD SVG 1.1//EN" "http://www.w3.org/Graphics/SVG/1.1/DTD/svg11.dtd">
<svg version="1.1" id="Layer_1" xmlns="http://www.w3.org/2000/svg" xmlns:xlink="http://www.w3.org/1999/xlink" x="0px" y="0px"
	 viewBox="0 0 13.8 13.8" enable-background="new 0 0 13.8 13.8" xml:space="preserve">
<rect x="5.3" y="0.4" fill="#787878" width="1" height="3.2"/>
<rect x="0.8" y="6.1" fill="#787878" width="6.9" height="1"/>
<rect x="9.8" y="6.1" fill="#787878" width="3.7" height="1"/>
<rect x="5.3" y="5.3" fill="#787878" width="1" height="1.4"/>
<path fill="#787878" d="M4.5,3.5H1.8V1.6h2.7V3.5z M2.3,3H4V2.1H2.3V3z"/>
<path fill="#787878" d="M3.8,12.5H1.8V8.3h1.9V12.5z M2.3,12h0.9V8.8H2.3V12z"/>
<path fill="#787878" d="M6.9,12.5H5v-2.1h1.9V12.5z M5.5,12h0.9v-1.1H5.5V12z"/>
<rect x="10.6" y="9.8" fill="#787878" width="0.5" height="3"/>
<path fill="#787878" d="M8.2,12.8H7.7c0-1.6,1.3-3,3-3v0.5C9.3,10.3,8.2,11.4,8.2,12.8z"/>
<polygon fill="#787878" points="0,0 0,13.8 8.2,13.8 8.2,12.8 1,12.8 1,1 12.8,1 12.8,12.8 10.6,12.8 10.6,13.8 13.8,13.8 13.8,0 
	"/>
</svg>
