<?xml version="1.0" encoding="UTF-8"?>
<!-- Generator: Adobe Illustrator 17.1.0, SVG Export Plug-In . SVG Version: 6.00 Build 0)  -->
<!DOCTYPE svg PUBLIC "-//W3C//DTD SVG 1.1//EN" "http://www.w3.org/Graphics/SVG/1.1/DTD/svg11.dtd">
<svg version="1.1" xmlns="http://www.w3.org/2000/svg" xmlns:xlink="http://www.w3.org/1999/xlink" x="0px" y="0px" viewBox="0 0 99.2 98.9" enable-background="new 0 0 99.2 98.9" xml:space="preserve">
<g id="Layer_1" display="none">
	<g display="inline">
		<path fill="#020202" d="M63,40.5c-3.8,0-6.8-0.2-6.8,1.7s3.1,3.4,6.8,3.4c3.8,0,6.8-1.5,6.8-3.4S66.8,40.5,63,40.5z"/>
		<path fill="#020202" d="M45.9,42.2c0-1.9-3.1-1.7-6.8-1.7s-6.8-0.2-6.8,1.7c0,1.9,3.1,3.4,6.8,3.4S45.9,44.1,45.9,42.2z"/>
		<path fill="#020202" d="M60.2,60.2l-0.4,0.4c0,0,0,0-0.1,0.2c-0.1,0.2-0.2,0.4-0.4,0.7c-0.3,0.6-0.9,1.3-1.6,2.1    c-0.4,0.4-0.8,0.7-1.3,1.1c-0.5,0.3-1,0.6-1.6,0.9c-0.6,0.2-1.2,0.4-1.8,0.5c-0.3,0-0.5,0.1-0.9,0.1L51,66.3c-0.7,0-1.4,0-2.1-0.2    c-0.7-0.1-1.3-0.3-1.8-0.5c-0.6-0.2-1.1-0.5-1.6-0.9c-0.5-0.3-0.9-0.7-1.3-1.1c-0.7-0.8-1.3-1.6-1.6-2.1c-0.4-0.6-0.5-0.8-0.5-0.9    c-0.2-0.7-0.9-1.2-1.7-1c-0.7,0.2-1.2,0.9-1,1.7c0,0,0,0.6,0.2,1.4c0.2,0.8,0.6,2.1,1.5,3.4c0.4,0.6,1,1.3,1.6,2    c0.7,0.6,1.4,1.2,2.3,1.7c0.9,0.5,1.9,0.9,2.9,1.1c1,0.2,2.1,0.3,3.1,0.4l1.4-0.1c0.4,0,1.1-0.2,1.6-0.3c1.1-0.2,2-0.6,2.9-1.1    c0.9-0.5,1.7-1.1,2.4-1.7c0.7-0.6,1.2-1.3,1.6-2c0.8-1.3,1.3-2.5,1.5-3.4c0.1-0.4,0.2-0.8,0.2-1c0-0.3,0.1-0.4,0.1-0.4    c0.1-0.5-0.1-0.9-0.5-1.3C61.6,59.6,60.7,59.6,60.2,60.2z"/>
		<path fill="#020202" d="M49.4,0C22.1,0,0,22.1,0,49.4s22.1,49.4,49.4,49.4s49.4-22.1,49.4-49.4S76.6,0,49.4,0z M78.4,25.3    C77.6,47.4,74,60,67.8,69.5C62.2,78,55.6,79.8,51,79.8c-4.6,0-11.2-1.8-16.8-10.3c-6.5-9.9-10.1-23-10.7-46.6    c1.1-1.1,2.4-1.6,3.5-1.6c1.2,0,2.2,0.6,2.8,1.7c0.8,0.6,5.4,3.7,21.2,3.7c15.8,0,20.4-3.1,21.2-3.7c0.6-1.1,1.6-1.7,2.8-1.7    c0.8,0,1.7,0.3,2.5,0.8c0.7,1.5,1,2.1,1,2.9C78.4,25.1,78.4,25.2,78.4,25.3z"/>
	</g>
</g>
<g id="restaurants" display="none">
	<path display="inline" fill="#020202" d="M49.4,0C22.1,0,0,22.1,0,49.4c0,27.3,22.1,49.4,49.4,49.4c27.3,0,49.4-22.1,49.4-49.4   C98.7,22.1,76.6,0,49.4,0z M41.6,41.3v38.9c0,2.2-1.8,4-4,4c-2.2,0-4-1.8-4-4V41.3c-3.4-2-5.8-6.5-5.8-11.7   c0-7.1,4.4-12.9,9.8-12.9c5.4,0,9.8,5.8,9.8,12.9C47.3,34.8,45,39.3,41.6,41.3z M70.3,37c0,4.4-2,8.2-4.9,10v32.9   c0,1.9-1.5,3.4-3.4,3.4c-1.9,0-3.4-1.5-3.4-3.4V46.9c-2.9-1.7-4.9-5.5-4.9-10V19.2h2.6V34h2.3V19.2h2.2V34h2.3V19.2h2.2V34h2.3   V19.2h2.6V37z"/>
</g>
<g id="school" display="none">
	<g display="inline">
		<rect x="36.9" y="47.9" fill="#020202" width="5.4" height="6.3"/>
		<rect x="46.7" y="47.9" fill="#020202" width="5.4" height="6.3"/>
		<rect x="56.4" y="47.9" fill="#020202" width="5.4" height="6.3"/>
		<path fill="#020202" d="M49.4,0C22.1,0,0,22.1,0,49.4s22.1,49.4,49.4,49.4c27.3,0,49.4-22.1,49.4-49.4S76.6,0,49.4,0z M69.8,79    H54.2V63.9h-9.7V79H28.9V41h9.7V28.4h-2.1l12.9-12.9l12.9,12.9h-2.1V41h9.7V79z"/>
	</g>
</g>
<g id="lock" display="none">
	<g display="inline">
		<path fill="#020202" d="M49.4,0C22.1,0,0,22.1,0,49.4s22.1,49.4,49.4,49.4c27.3,0,49.4-22.1,49.4-49.4S76.6,0,49.4,0z M29.1,75.9    l1.9-36h7.8V26.5c0-5.8,4.7-10.5,10.5-10.5s10.5,4.7,10.5,10.5v13.4h7.8l1.9,36H29.1z"/>
		<path fill="#020202" d="M49.4,19.9c-3.6,0-6.6,3-6.6,6.6v13.4h13.2V26.5C55.9,22.9,53,19.9,49.4,19.9z"/>
	</g>
</g>
<g id="outside">
	<path fill="#020202" d="M49.4,0C22.1,0,0,22.1,0,49.4s22.1,49.4,49.4,49.4c27.3,0,49.4-22.1,49.4-49.4S76.6,0,49.4,0z M20.7,27.8   c3.2,0,5.8,2.6,5.8,5.8c0,3.2-2.6,5.8-5.8,5.8c-3.2,0-5.8-2.6-5.8-5.8C14.9,30.4,17.5,27.8,20.7,27.8z M14.3,65.6l19.1-26.9   L61,66.2L14.3,65.6z M60.6,60L48.9,48l11.9-15.2l27.6,27.6L60.6,60z"/>
</g>
</svg>