<?xml version="1.0" encoding="utf-8"?>
<!-- Generator: Adobe Illustrator 17.1.0, SVG Export Plug-In . SVG Version: 6.00 Build 0)  -->
<!DOCTYPE svg PUBLIC "-//W3C//DTD SVG 1.1//EN" "http://www.w3.org/Graphics/SVG/1.1/DTD/svg11.dtd">
<svg version="1.1" xmlns="http://www.w3.org/2000/svg" xmlns:xlink="http://www.w3.org/1999/xlink" x="0px" y="0px"
	 viewBox="0 0 250 252" enable-background="new 0 0 250 252" xml:space="preserve">
<g id="stumbleupon" display="none">
	<path display="inline" fill="#414042" d="M0,0v250h250V0H0z M125,98.713c-3.655,0-6.615,2.964-6.615,6.615l-0.03,39.86
		c-0.221,15.251-12.611,27.542-27.916,27.542c-15.427,0-27.939-12.513-27.939-27.939c0-0.199,0-17.334,0-17.334h21.385v17.105
		c0,3.655,2.96,6.615,6.615,6.615c3.655,0,6.615-2.96,6.615-6.615v-40.359C97.656,89.245,109.909,77.27,125,77.27
		c15.144,0,27.435,12.062,27.885,27.096v8.834l-12.733,3.8l-8.537-3.979v-7.694C131.615,101.677,128.655,98.713,125,98.713z
		 M187.5,144.791c0,15.426-12.513,27.939-27.939,27.939c-15.35,0-27.816-12.375-27.946-27.695V127.62l8.537,3.979l12.733-3.799
		v17.555c0,3.662,2.96,6.622,6.615,6.622c3.655,0,6.615-2.96,6.615-6.622v-17.899H187.5C187.5,127.456,187.5,144.592,187.5,144.791z
		"/>
</g>
<g id="yelp" display="none">
	<path display="inline" fill="#414042" d="M0,0v250h250V0H0z M88.158,74.898c1.251-2.014,3.662-2.812,3.662-2.812l24.62-9.148
		c1.053-0.156,2.144-1.316,5.814,0.909c2.342,1.411,2.868,6.622,2.868,6.622l0.237,42.221c0,0-0.557,5.07-4.044,5.932
		c-3.22,0.793-5.745-1.816-5.745-1.816L89.981,81.92C89.981,81.92,86.365,77.748,88.158,74.898z M75.127,147.003
		c-0.953-1.678-0.694-5.349-0.694-5.349l1.724-21.217c0.122-1.381,1.419-2.941,2.876-3.803c1.9-1.126,5.821,0.492,5.821,0.492
		l26.466,13.37c0,0,3.998,1.953,3.914,5.211c-0.122,4.307-2.227,4.383-3.426,5.191l-30.891,6.821
		C80.917,147.72,76.477,149.376,75.127,147.003z M122.765,187.241c-1.908,0.557-4.425,0.031-4.425,0.031l-20.775-6.561
		c-1.45-0.702-2.472-1.694-3.09-3.693c-0.656-2.144,1.923-5.63,1.923-5.63l20.691-22.766c0,0,3.174-2.823,5.829-1.465
		c2.427,1.259,2.533,4.227,2.533,4.227l-0.473,30.838C124.977,182.22,125.473,186.462,122.765,187.241z M135.399,123.902
		l16.762-26.367c0,0,1.724-3.399,4.539-3.163c2.548,0.213,3.777,2.323,3.777,2.323l14.168,16.694c0,0,1.236,2.647,0.671,4.837
		c-0.58,2.194-4.623,3.838-4.623,3.838l-29.655,8.667c0,0-4.196,0.752-5.714-1.827C133.919,126.53,135.399,123.902,135.399,123.902z
		 M174.316,158.462l-12.558,17.945c0,0-2.243,1.869-4.509,1.869c-2.258,0-4.867-3.502-4.867-3.502l-15.876-26.512
		c0,0-1.785-3.868,0.32-5.989c1.945-1.968,4.852-1.19,4.852-1.19l29.724,9.545c0,0,4.249,0.77,4.204,3.593
		C175.575,156.204,174.316,158.462,174.316,158.462z"/>
</g>
<g id="flickr" display="none">
	<path display="inline" fill="#414042" d="M0,0v250h250V0H0z M90.225,152.725c-15.312,0-27.725-12.42-27.725-27.725
		s12.413-27.721,27.725-27.721c15.305,0,27.726,12.416,27.726,27.721S105.53,152.725,90.225,152.725z M159.775,152.725
		c-15.305,0-27.718-12.42-27.718-27.725s12.413-27.721,27.718-27.721c15.312,0,27.725,12.416,27.725,27.721
		S175.087,152.725,159.775,152.725z"/>
</g>
<g id="vine" display="none">
	<path display="inline" fill="#414042" d="M0,0v250h250V0H0z M186.874,96.645c-6.988,39.341-46.005,72.666-57.747,80.28
		c-11.741,7.614-22.453-3.052-26.329-11.109c-4.455-9.201-17.777-59.017-21.263-63.145c-3.487-4.12-13.962,4.127-13.962,4.127
		l-5.073-6.653c0,0,21.255-25.391,37.43-28.572c17.159-3.365,17.136,26.345,21.263,42.831c3.991,15.953,6.676,25.074,10.155,25.074
		c3.495,0,10.155-8.892,17.448-22.526c7.302-13.649-0.312-25.711-14.595-17.136C139.908,65.548,193.855,57.308,186.874,96.645z"/>
</g>
<g id="www" display="none">
	<g display="inline">
		<path fill="#414042" d="M160.248,84.945c-9.399-8.285-21.744-13.32-35.248-13.32c-4.334,0-8.545,0.526-12.573,1.51
			c0.794,1.053,10.819,14.374,19.944,31.136C152.512,96.718,160.11,85.152,160.248,84.945z"/>
		<path fill="#414042" d="M85.297,160.667c0-0.008-0.008-0.023-0.008-0.023h-0.008C85.281,160.645,85.297,160.659,85.297,160.667z"
			/>
		<path fill="#414042" d="M128.692,125.412c0.702-0.221,1.389-0.434,2.106-0.633c-1.343-3.037-2.808-6.08-4.333-9.072
			c-27.481,8.225-53.849,7.622-54.795,7.607c-0.015,0.557-0.045,1.113-0.045,1.678c0,13.71,5.173,26.199,13.656,35.652
			C85.297,160.614,99.907,134.712,128.692,125.412z"/>
		<path fill="#414042" d="M112.213,73.173c-0.061,0.023-0.123,0.03-0.168,0.046c0.092-0.016,0.152-0.03,0.152-0.03
			S112.213,73.181,112.213,73.173z"/>
		<path fill="#414042" d="M122.04,107.483c-9.232-16.419-19.104-29.8-19.821-30.754c-14.877,7.027-25.986,20.737-29.45,37.269
			C74.173,114.021,96.42,114.288,122.04,107.483z"/>
		<path fill="#414042" d="M92.194,167.076c0,0,0.03-0.061,0.03-0.076c-0.389-0.313-0.839-0.542-1.221-0.855
			C91.705,166.71,92.194,167.076,92.194,167.076z"/>
		<path fill="#414042" d="M0,0v250h250V0H0z M186.218,137.588c-0.809,4.013-2.045,7.966-3.647,11.741
			c-1.556,3.701-3.494,7.287-5.752,10.62c-2.243,3.312-4.806,6.416-7.63,9.247c-2.823,2.823-5.935,5.387-9.247,7.622
			c-3.341,2.259-6.912,4.196-10.62,5.76c-3.769,1.602-7.721,2.823-11.749,3.647c-4.105,0.847-8.347,1.274-12.573,1.274
			c-4.242,0-8.469-0.427-12.588-1.274c-4.013-0.824-7.966-2.045-11.749-3.647c-3.693-1.564-7.279-3.502-10.62-5.76
			c-3.296-2.235-6.409-4.799-9.247-7.622c-2.823-2.83-5.387-5.935-7.614-9.247c-2.259-3.334-4.196-6.92-5.768-10.62
			c-1.602-3.776-2.823-7.728-3.647-11.741c-0.839-4.112-1.266-8.354-1.266-12.596c0-4.227,0.427-8.469,1.266-12.573
			c0.824-4.012,2.045-7.973,3.647-11.749c1.572-3.708,3.509-7.278,5.768-10.613c2.227-3.311,4.792-6.423,7.614-9.247
			c2.838-2.83,5.951-5.394,9.247-7.629c3.341-2.259,6.927-4.196,10.62-5.768c3.784-1.587,7.736-2.823,11.749-3.639
			c4.12-0.847,8.346-1.274,12.588-1.274c4.227,0,8.469,0.427,12.573,1.274c4.028,0.816,7.98,2.052,11.749,3.639
			c3.708,1.572,7.278,3.509,10.62,5.768c3.312,2.235,6.424,4.798,9.247,7.629c2.823,2.823,5.387,5.936,7.63,9.247
			c2.259,3.334,4.196,6.905,5.752,10.613c1.602,3.777,2.838,7.737,3.647,11.749c0.855,4.105,1.282,8.347,1.282,12.573
			C187.5,129.234,187.073,133.477,186.218,137.588z"/>
		<path fill="#414042" d="M136.474,112.22c1.252,2.541,2.441,5.127,3.555,7.745c0.397,0.923,0.778,1.838,1.145,2.754
			c18.341-2.304,36.408,1.579,37.186,1.747c-0.137-12.665-4.654-24.277-12.146-33.371
			C166.123,91.248,157.562,103.623,136.474,112.22z"/>
		<path fill="#414042" d="M134.079,133.736c-31.037,10.81-41.458,32.432-41.855,33.264c9.056,7.072,20.393,11.375,32.776,11.375
			c7.385,0,14.434-1.503,20.828-4.227c-0.778-4.669-3.891-21.011-11.398-40.527C134.308,133.659,134.201,133.69,134.079,133.736z"/>
		<path fill="#414042" d="M144.44,131.141c6.988,19.241,9.841,34.905,10.376,38.124c11.994-8.087,20.508-20.92,22.873-35.789
			C176.59,133.11,161.667,128.387,144.44,131.141z"/>
	</g>
</g>
<g id="rss" display="none">
	<path display="inline" fill="#414042" d="M0,0v250h250V0H0z M79.338,187.363c-9.163,0-16.587-7.431-16.587-16.602
		c0-9.17,7.423-16.594,16.587-16.594c9.17,0,16.602,7.423,16.602,16.594C95.94,179.931,88.509,187.363,79.338,187.363z
		 M120.98,187.47c0-15.663-6.066-30.373-17.067-41.42c-10.979-11.047-25.597-17.12-41.145-17.12v-23.956
		c45.303,0,82.169,37.01,82.169,82.497H120.98z M163.292,187.5c0-55.717-45.075-101.044-100.487-101.044V62.5
		c68.619,0,124.443,56.068,124.443,125H163.292z"/>
</g>
<g id="linkedin" display="none">
	<g display="inline">
		<path fill="#414042" d="M132.492,115.814v-0.267c-0.046,0.091-0.115,0.191-0.176,0.267H132.492z"/>
		<path fill="#414042" d="M0,0v250h250V0H0z M90.881,184.738H64.079v-80.601h26.802V184.738z M77.477,93.128h-0.176
			c-8.988,0-14.801-6.202-14.801-13.931c0-7.908,5.997-13.935,15.152-13.935c9.171,0,14.816,6.027,14.984,13.935
			C92.636,86.926,86.823,93.128,77.477,93.128z M187.5,184.738h-26.794v-43.122c0-10.834-3.876-18.238-13.581-18.238
			c-7.393,0-11.81,5.009-13.748,9.811c-0.71,1.728-0.885,4.109-0.885,6.535v45.013h-26.787c0,0,0.343-73.048,0-80.601h26.787v11.409
			c3.57-5.497,9.934-13.302,24.155-13.302c17.623,0,30.853,11.512,30.853,36.274V184.738z"/>
	</g>
</g>
<g id="youtube" display="none">
	<g display="inline">
		<polygon fill="#414042" points="109.021,145.46 151.032,123.502 109.021,101.543 		"/>
		<path fill="#414042" d="M0,0v250h250V0H0z M202.982,130.896c0,12.621-1.558,25.243-1.558,25.243s-1.524,10.748-6.2,15.481
			c-5.931,6.212-12.579,6.243-15.627,6.606c-21.826,1.578-54.598,1.627-54.598,1.627s-40.551-0.37-53.028-1.566
			c-3.471-0.651-11.265-0.455-17.198-6.667c-4.676-4.733-6.198-15.481-6.198-15.481s-1.56-12.621-1.56-25.243v-11.833
			c0-12.621,1.56-25.242,1.56-25.242s1.522-10.748,6.198-15.481c5.933-6.212,12.578-6.243,15.627-6.607
			c21.826-1.578,54.564-1.578,54.564-1.578h0.068c0,0,32.739,0,54.564,1.578c3.048,0.364,9.696,0.394,15.627,6.607
			c4.676,4.733,6.2,15.481,6.2,15.481s1.558,12.621,1.558,25.242V130.896z"/>
	</g>
</g>
<g id="mail" display="none">
	<path display="inline" fill="#414042" d="M0,0v250h250V0H0z M62.641,79.293h124.72c1.303,0,2.525,0.309,3.615,0.855h-0.018
		l-65.973,54.327L59.042,80.149h-0.017C60.115,79.603,61.336,79.293,62.641,79.293z M52.512,160.589v-26.443V89.417
		c0-1.568,0.463-3.017,1.223-4.264l48.369,39.846l-11.116,9.159h0l-37.254,30.695C52.976,163.604,52.512,162.148,52.512,160.589z
		 M187.36,170.715H62.641c-1.305,0-2.526-0.316-3.616-0.862h0.017l48.551-39.999l15.932,13.123c0.42,0.353,0.94,0.528,1.46,0.528
		c0.52,0,1.037-0.175,1.461-0.528l15.935-13.123l48.566,39.993C189.864,170.384,188.656,170.715,187.36,170.715z M197.488,160.589
		c0,1.56-0.463,3.015-1.223,4.264l-48.395-39.854l48.377-39.835c0.768,1.245,1.241,2.686,1.241,4.253V160.589z"/>
</g>
<g id="pinterest">
	<path fill="#414042" d="M0,0v250h250V0H0z M137.909,152.832c-7.751,0-15.045-4.181-17.54-8.941c0,0-4.173,16.54-5.051,19.73
		c-3.113,11.284-12.26,22.575-12.962,23.498c-0.496,0.641-1.595,0.442-1.709-0.412c-0.198-1.434-2.533-15.67,0.214-27.283
		c1.38-5.829,9.239-39.123,9.239-39.123s-2.297-4.585-2.297-11.36c0-10.643,6.173-18.585,13.855-18.585
		c6.531,0,9.674,4.902,9.674,10.78c0,6.565-4.173,16.38-6.333,25.474c-1.801,7.618,3.815,13.833,11.33,13.833
		c13.603,0,22.766-17.472,22.766-38.174c0-15.735-10.598-27.515-29.877-27.515c-21.774,0-35.347,16.243-35.347,34.385
		c0,6.256,1.847,10.67,4.738,14.08c1.327,1.571,1.51,2.201,1.03,4.002c-0.351,1.323-1.129,4.505-1.465,5.764
		c-0.473,1.82-1.953,2.468-3.593,1.796c-10.033-4.093-14.702-15.079-14.702-27.431c0-20.393,17.197-44.849,51.316-44.849
		c27.413,0,45.455,19.833,45.455,41.13C176.651,131.794,160.988,152.832,137.909,152.832z"/>
</g>
<g id="g_x2B_" display="none">
	<g display="inline">
		<path fill="#414042" d="M103.791,140.366c-14.802-0.168-27.336,9.338-27.336,20.37c0,11.246,10.688,20.615,25.482,20.615
			c20.805,0,28.053-8.789,28.053-20.05c0-1.359-0.168-2.686-0.473-3.967c-1.632-6.363-8.102-9.858-16.144-15.442
			C110.459,140.945,107.239,140.396,103.791,140.366z"/>
		<path fill="#414042" d="M0,0v250h250V0H0z M134.552,91.976c0,8.148-4.509,14.71-10.88,19.691
			c-6.226,4.86-7.401,6.898-7.401,11.025c0,3.525,7.431,8.781,10.849,11.345c11.895,8.923,14.305,14.538,14.305,25.692
			c0,13.931-15.007,27.771-39.406,27.771c-21.408,0-39.474-8.698-39.474-22.629c0-14.13,14.983-28.87,36.392-28.87
			c2.334,0,4.47-0.061,6.683-0.061c-2.93-2.842-5.295-5.298-5.295-9.602c0-2.556,0.809-4.998,1.953-7.187
			c-1.159,0.084-2.35,0.152-3.57,0.152c-17.586,0-27.824-12.352-27.824-27.848c0-15.167,15.587-28.953,34.279-28.953
			c9.636,0,36.842,0,36.842,0l-8.232,8.644H124.1C130.928,75.054,134.552,83.103,134.552,91.976z M187.455,89.702h-16.998v16.991
			h-8.499V89.702h-16.991v-8.499h16.991V64.205h8.499v16.998h16.998V89.702z"/>
		<path fill="#414042" d="M99.617,68.493c-9.926-0.29-16.594,9.689-14.87,22.728c1.709,13.038,11.146,22.148,21.08,22.453
			c9.926,0.29,15.633-8.102,13.923-21.141C118.042,79.495,109.543,68.798,99.617,68.493z"/>
	</g>
</g>
<g id="twitter" display="none">
	<path display="inline" fill="#414042" d="M0,0v250h250V0H0z M174.705,99.51c0.053,1.098,0.077,2.205,0.077,3.319
		c0,33.89-25.795,72.967-72.968,72.967c-14.488,0-27.962-4.249-39.314-11.52c2.014,0.229,4.051,0.352,6.119,0.352
		c12.024,0,23.071-4.098,31.845-10.971c-11.216-0.214-20.691-7.63-23.948-17.815c1.563,0.298,3.166,0.466,4.821,0.466
		c2.342,0,4.609-0.321,6.752-0.905C76.37,133.045,67.52,122.68,67.52,110.256c0-0.107,0-0.214,0-0.324
		c3.463,1.923,7.416,3.078,11.62,3.208c-6.882-4.597-11.406-12.447-11.406-21.343c0-4.7,1.266-9.105,3.472-12.894
		c12.641,15.518,31.548,25.727,52.856,26.795c-0.435-1.877-0.664-3.834-0.664-5.845c0-14.163,11.483-25.642,25.65-25.642
		c7.37,0,14.038,3.113,18.715,8.095c5.837-1.148,11.33-3.28,16.289-6.221c-1.923,5.989-5.981,11.016-11.277,14.187
		c5.188-0.618,10.132-1.995,14.725-4.036C184.067,91.377,179.718,95.894,174.705,99.51z"/>
</g>
<g id="facebook" display="none">
	<path display="inline" fill="#414042" d="M0,0v250h250V0H0z M151.78,125.042h-17.517c0,27.988,0,62.458,0,62.458h-25.955
		c0,0,0-34.127,0-62.458H95.963v-22.065h12.345V88.699c0-10.22,4.852-26.199,26.191-26.199l19.227,0.073v21.423
		c0,0-11.688,0-13.955,0c-2.273,0-5.508,1.137-5.508,6.008v12.973h19.791L151.78,125.042z"/>
</g>
</svg>
