<?xml version="1.0" encoding="utf-8"?>
<!-- Generator: Adobe Illustrator 17.1.0, SVG Export Plug-In . SVG Version: 6.00 Build 0)  -->
<!DOCTYPE svg PUBLIC "-//W3C//DTD SVG 1.1//EN" "http://www.w3.org/Graphics/SVG/1.1/DTD/svg11.dtd">
<svg version="1.1" id="Layer_1" xmlns="http://www.w3.org/2000/svg" xmlns:xlink="http://www.w3.org/1999/xlink" x="0px" y="0px"
	 viewBox="0 0 192.8 192.8" enable-background="new 0 0 192.8 192.8" xml:space="preserve">
<g>
	<polygon fill-rule="evenodd" clip-rule="evenodd" fill="#FFFFFF" points="0,0 192.8,0 192.8,192.8 0,192.8 0,0 	"/>
	<polygon fill-rule="evenodd" clip-rule="evenodd" points="26.5,148.6 19.4,148.6 19.4,151.4 25.9,151.4 25.9,153.7 19.4,153.7 
		19.4,157.2 26.8,157.2 26.8,159.6 16.6,159.6 16.6,146.2 26.5,146.2 26.5,148.6 	"/>
	<path fill-rule="evenodd" clip-rule="evenodd" d="M35.4,155.9l1.3,1.3c-0.5,0.3-1,0.4-1.5,0.4c-1.5,0-3.6-0.9-3.6-4.7
		c0-3.7,2.1-4.7,3.6-4.7c1.5,0,3.6,0.9,3.6,4.7c0,1.3-0.2,2.2-0.6,2.9l-1.4-1.3L35.4,155.9L35.4,155.9z M41.8,159l-1.5-1.4
		c0.8-1,1.4-2.6,1.4-4.8c0-6.3-4.7-7-6.4-7c-1.8,0-6.4,0.8-6.4,7c0,6.3,4.7,7,6.4,7c0.8,0,2.2-0.1,3.4-0.9l1.6,1.5L41.8,159
		L41.8,159z"/>
	<path fill-rule="evenodd" clip-rule="evenodd" d="M54.9,154.9c0,3.5-2.1,5-5.5,5c-1.2,0-3.1-0.3-4.2-1.6c-0.7-0.8-1-1.9-1-3.2v-8.9
		h2.8v8.7c0,1.9,1.1,2.7,2.4,2.7c1.9,0,2.7-0.9,2.7-2.6v-8.8h2.9V154.9L54.9,154.9z"/>
	<path fill-rule="evenodd" clip-rule="evenodd" d="M62.3,149.2L62.3,149.2l1.7,5.3h-3.4L62.3,149.2L62.3,149.2z M59.9,156.8h4.9
		l0.9,2.8h3L64,146.2h-3.2L56,159.6H59L59.9,156.8L59.9,156.8z"/>
	<polygon fill-rule="evenodd" clip-rule="evenodd" points="73.7,157.1 80.3,157.1 80.3,159.6 70.9,159.6 70.9,146.2 73.7,146.2 
		73.7,157.1 	"/>
	<polygon fill-rule="evenodd" clip-rule="evenodd" points="90.9,153.6 90.9,159.6 88.1,159.6 88.1,146.2 90.9,146.2 90.9,151.3 
		96.2,151.3 96.2,146.2 98.9,146.2 98.9,159.6 96.2,159.6 96.2,153.6 90.9,153.6 	"/>
	<path fill-rule="evenodd" clip-rule="evenodd" d="M104.3,152.9c0-3.7,2.1-4.7,3.6-4.7c1.5,0,3.6,0.9,3.6,4.7c0,3.7-2.1,4.7-3.6,4.7
		C106.4,157.5,104.3,156.6,104.3,152.9L104.3,152.9z M101.5,152.9c0,6.3,4.7,7,6.4,7c1.8,0,6.4-0.8,6.4-7c0-6.3-4.7-7-6.4-7
		C106.1,145.8,101.5,146.6,101.5,152.9L101.5,152.9z"/>
	<path fill-rule="evenodd" clip-rule="evenodd" d="M127.7,154.9c0,3.5-2.1,5-5.5,5c-1.2,0-3.1-0.3-4.2-1.6c-0.7-0.8-1-1.9-1-3.2
		v-8.9h2.8v8.7c0,1.9,1.1,2.7,2.4,2.7c1.9,0,2.7-0.9,2.7-2.6v-8.8h2.9V154.9L127.7,154.9z"/>
	<path fill-rule="evenodd" clip-rule="evenodd" d="M132.8,155.4c0,0.7,0.4,2.2,2.8,2.2c1.3,0,2.8-0.3,2.8-1.7c0-1-1-1.3-2.4-1.7
		l-1.4-0.3c-2.2-0.5-4.3-1-4.3-3.9c0-1.5,0.8-4.1,5.1-4.1c4.1,0,5.2,2.7,5.2,4.3H138c-0.1-0.6-0.3-2-2.7-2c-1.1,0-2.3,0.4-2.3,1.6
		c0,1,0.9,1.3,1.4,1.4l3.3,0.8c1.8,0.4,3.5,1.2,3.5,3.6c0,4-4.1,4.4-5.3,4.4c-4.9,0-5.7-2.8-5.7-4.5H132.8L132.8,155.4z"/>
	<polygon fill-rule="evenodd" clip-rule="evenodd" points="146.2,159.6 143.4,159.6 143.4,146.2 146.2,146.2 146.2,159.6 	"/>
	<polygon fill-rule="evenodd" clip-rule="evenodd" points="157.3,146.2 160,146.2 160,159.6 157.2,159.6 151.7,150 151.7,150 
		151.7,159.6 149.1,159.6 149.1,146.2 152,146.2 157.3,155.5 157.3,155.5 157.3,146.2 	"/>
	<path fill-rule="evenodd" clip-rule="evenodd" d="M169.3,152.4h5.6v7.2H173l-0.3-1.7c-0.7,0.8-1.7,2-4.2,2c-3.2,0-6.1-2.3-6.1-7
		c0-3.6,2-7.1,6.5-7.1c4.1,0,5.7,2.7,5.9,4.5H172c0-0.5-1-2.2-2.9-2.2c-2,0-3.8,1.4-3.8,4.8c0,3.7,2,4.6,3.9,4.6
		c0.6,0,2.7-0.2,3.2-2.9h-3.1V152.4L169.3,152.4z"/>
	<path fill-rule="evenodd" clip-rule="evenodd" d="M18.8,173.2c0-3.7,2.1-4.7,3.6-4.7c1.5,0,3.6,0.9,3.6,4.7c0,3.7-2.1,4.7-3.6,4.7
		C21,177.9,18.8,176.9,18.8,173.2L18.8,173.2z M16,173.2c0,6.3,4.7,7,6.4,7c1.8,0,6.4-0.8,6.4-7c0-6.3-4.7-7-6.4-7
		C20.7,166.2,16,166.9,16,173.2L16,173.2z"/>
	<path fill-rule="evenodd" clip-rule="evenodd" d="M36.5,172.7v-3.9h2.2c1.7,0,2.5,0.5,2.5,1.8c0,0.6,0,2.1-2.1,2.1H36.5L36.5,172.7
		z M36.5,175.1h3.2c3.6,0,4.3-3.1,4.3-4.3c0-2.6-1.6-4.3-4.2-4.3h-6.1v13.4h2.8V175.1L36.5,175.1z"/>
	<path fill-rule="evenodd" clip-rule="evenodd" d="M51.6,172.7v-3.9h2.2c1.7,0,2.5,0.5,2.5,1.8c0,0.6,0,2.1-2.1,2.1H51.6L51.6,172.7
		z M51.6,175.1h3.2c3.6,0,4.3-3.1,4.3-4.3c0-2.6-1.6-4.3-4.2-4.3h-6.1v13.4h2.8V175.1L51.6,175.1z"/>
	<path fill-rule="evenodd" clip-rule="evenodd" d="M66.1,173.2c0-3.7,2.1-4.7,3.6-4.7c1.5,0,3.6,0.9,3.6,4.7c0,3.7-2.1,4.7-3.6,4.7
		C68.2,177.9,66.1,176.9,66.1,173.2L66.1,173.2z M63.3,173.2c0,6.3,4.7,7,6.4,7c1.8,0,6.4-0.8,6.4-7c0-6.3-4.7-7-6.4-7
		C67.9,166.2,63.3,166.9,63.3,173.2L63.3,173.2z"/>
	<path fill-rule="evenodd" clip-rule="evenodd" d="M83.7,172.4v-3.6h3.5c1.6,0,2,1,2,1.8c0,1.3-0.7,1.8-2.2,1.8H83.7L83.7,172.4z
		 M81,179.9h2.7v-5.2h2.9c2.1,0,2.2,0.7,2.2,2.5c0,1.4,0.1,2.1,0.3,2.7h3.1v-0.4c-0.6-0.2-0.6-0.7-0.6-2.7c0-2.5-0.6-2.9-1.7-3.4
		c1.3-0.4,2.1-1.7,2.1-3.2c0-1.2-0.6-3.8-4.2-3.8H81V179.9L81,179.9z"/>
	<polygon fill-rule="evenodd" clip-rule="evenodd" points="102.4,179.9 99.6,179.9 99.6,168.9 95.5,168.9 95.5,166.5 106.4,166.5 
		106.4,168.9 102.4,168.9 102.4,179.9 	"/>
	<path fill-rule="evenodd" clip-rule="evenodd" d="M121.4,175.2c0,3.5-2.1,5-5.5,5c-1.2,0-3-0.3-4.2-1.6c-0.7-0.8-1-1.9-1-3.2v-8.9
		h2.8v8.7c0,1.9,1.1,2.7,2.4,2.7c1.9,0,2.7-0.9,2.7-2.6v-8.8h2.9V175.2L121.4,175.2z"/>
	<polygon fill-rule="evenodd" clip-rule="evenodd" points="134.9,166.5 137.5,166.5 137.5,179.9 134.7,179.9 129.3,170.3 
		129.2,170.3 129.2,179.9 126.6,179.9 126.6,166.5 129.6,166.5 134.9,175.8 134.9,175.8 134.9,166.5 	"/>
	<polygon fill-rule="evenodd" clip-rule="evenodd" points="145.4,179.9 142.6,179.9 142.6,166.5 145.4,166.5 145.4,179.9 	"/>
	<polygon fill-rule="evenodd" clip-rule="evenodd" points="156.3,179.9 153.5,179.9 153.5,168.9 149.5,168.9 149.5,166.5 
		160.4,166.5 160.4,168.9 156.3,168.9 156.3,179.9 	"/>
	<polygon fill-rule="evenodd" clip-rule="evenodd" points="170.9,179.9 168.1,179.9 168.1,174.8 163.5,166.5 166.8,166.5 
		169.6,172.3 172.2,166.5 175.4,166.5 170.9,174.9 170.9,179.9 	"/>
	<path fill-rule="evenodd" clip-rule="evenodd" d="M95.7,6.8L5.6,51.2V72h10.1v62.5H175V72h12.1V51.2L95.7,6.8L95.7,6.8z
		 M155.5,115.7H35.2V58.6l60.5-30.9l59.8,30.9V115.7L155.5,115.7z"/>
	<polygon fill-rule="evenodd" clip-rule="evenodd" points="123.3,78.7 67.5,78.7 67.5,58.6 123.3,58.6 123.3,78.7 	"/>
	<polygon fill-rule="evenodd" clip-rule="evenodd" points="123.3,107.7 67.5,107.7 67.5,87.5 123.3,87.5 123.3,107.7 	"/>
</g>
</svg>
