<?xml version="1.0" encoding="utf-8"?>
<!-- Generator: Adobe Illustrator 19.2.1, SVG Export Plug-In . SVG Version: 6.00 Build 0)  -->
<svg version="1.1" id="Layer_1" xmlns="http://www.w3.org/2000/svg" xmlns:xlink="http://www.w3.org/1999/xlink" x="0px" y="0px"
	 viewBox="0 0 560 300" style="enable-background:new 0 0 560 300;" xml:space="preserve">
<style type="text/css">
	.st0{fill:#424640;}
</style>
<g>
	<g>
		<path class="st0" d="M187.4,30h3.4v115.3h20v15.7h-20v38.4h-16.4v-38.4H95.2L187.4,30z M174.3,145.4V75.9l-49,69.5H174.3z"/>
		<path class="st0" d="M224.2,116.9c0-21.8,2.3-38.7,7-50.6c4.7-11.9,11.3-20.9,19.8-27.1c8.5-6.1,18.1-9.2,28.7-9.2
			c10.7,0,20.4,3.1,29.1,9.3c8.7,6.2,15.6,15.5,20.6,27.8c5.1,12.4,7.6,29,7.6,49.8c0,20.8-2.5,37.3-7.5,49.6
			c-5,12.3-11.9,21.6-20.6,27.8c-8.8,6.3-18.5,9.4-29.2,9.4c-10.6,0-20.1-3-28.5-9.1c-8.5-6.1-15.1-15.1-19.8-27.1
			C226.6,155.4,224.2,138.6,224.2,116.9z M239.9,117.2c0,18.7,1.7,32.8,5,42.4c3.3,9.6,8.3,16.8,14.8,21.8c6.5,5,13.4,7.4,20.7,7.4
			c7.3,0,14.2-2.4,20.6-7.3c6.4-4.8,11.2-12.1,14.5-21.8c4.1-11.8,6.2-25.9,6.2-42.5c0-16.6-1.8-30.3-5.5-40.9
			c-3.7-10.6-8.7-18.4-15.2-23.3c-6.5-4.9-13.3-7.4-20.5-7.4c-7.3,0-14.2,2.5-20.7,7.4c-6.4,4.9-11.4,12.1-14.7,21.7
			C241.6,84.3,239.9,98.5,239.9,117.2z"/>
		<path class="st0" d="M351.8,116.9c0-21.8,2.3-38.7,7-50.6c4.7-11.9,11.3-20.9,19.8-27.1c8.5-6.1,18.1-9.2,28.7-9.2
			c10.7,0,20.4,3.1,29.1,9.3c8.7,6.2,15.6,15.5,20.6,27.8c5.1,12.4,7.6,29,7.6,49.8c0,20.8-2.5,37.3-7.5,49.6
			c-5,12.3-11.9,21.6-20.6,27.8c-8.8,6.3-18.5,9.4-29.2,9.4c-10.6,0-20.1-3-28.5-9.1c-8.5-6.1-15.1-15.1-19.8-27.1
			C354.2,155.4,351.8,138.6,351.8,116.9z M367.5,117.2c0,18.7,1.7,32.8,5,42.4c3.3,9.6,8.3,16.8,14.8,21.8c6.5,5,13.4,7.4,20.7,7.4
			c7.3,0,14.2-2.4,20.6-7.3c6.4-4.8,11.2-12.1,14.5-21.8c4.1-11.8,6.2-25.9,6.2-42.5c0-16.6-1.8-30.3-5.5-40.9
			c-3.7-10.6-8.7-18.4-15.2-23.3c-6.5-4.9-13.3-7.4-20.5-7.4c-7.3,0-14.2,2.5-20.7,7.4c-6.4,4.9-11.4,12.1-14.7,21.7
			C369.1,84.3,367.5,98.5,367.5,117.2z"/>
	</g>
	<g>
		<path class="st0" d="M163.6,235H177c7.3,0,12.6,0.7,15.7,2c3.1,1.3,5.6,3.5,7.5,6.5c1.9,3,2.8,6.6,2.8,10.8c0,4.4-1,8-3.1,10.9
			c-2.1,2.9-5.2,5.2-9.5,6.7l15.7,29.5h-13.8l-14.9-28.1h-1.2v28.1h-12.6V235z M176.2,261h4c4,0,6.8-0.5,8.3-1.6
			c1.5-1.1,2.3-2.8,2.3-5.3c0-1.4-0.4-2.7-1.1-3.8c-0.7-1.1-1.8-1.8-3-2.3c-1.3-0.5-3.6-0.7-6.9-0.7h-3.5V261z"/>
		<path class="st0" d="M216.3,235h12.8v25h22.2v-25h12.8v66.4h-12.8v-29.1h-22.2v29.1h-12.8V235z"/>
		<path class="st0" d="M279.3,235h36.2v12.4h-23.7v12h23.7v12.1h-23.7V289h23.7v12.4h-36.2V235z"/>
		<path class="st0" d="M320.8,235h36.7v12.5h-12.1v53.9h-12.8v-53.9h-11.8V235z"/>
		<path class="st0" d="M359.6,235h36.7v12.5h-12.1v53.9h-12.8v-53.9h-11.8V235z"/>
	</g>
</g>
<polygon class="st0" points="138,274 0,274 0,0 560,0 560,269 422,269 422,252 542,252 542,17 18,17 18,257 138,257 "/>
</svg>
